<?xml version="1.0" encoding="utf-8"?>
<!-- Generator: Adobe Illustrator 16.0.3, SVG Export Plug-In . SVG Version: 6.00 Build 0)  -->
<!DOCTYPE svg PUBLIC "-//W3C//DTD SVG 1.1//EN" "http://www.w3.org/Graphics/SVG/1.1/DTD/svg11.dtd">
<svg version="1.1" id="Layer_1" xmlns="http://www.w3.org/2000/svg" xmlns:xlink="http://www.w3.org/1999/xlink" x="0px" y="0px"
	 width="444px" height="123.75px" viewBox="0 0 444 123.75" enable-background="new 0 0 444 123.75" xml:space="preserve">
<g>
	<path fill="#0D1D73" d="M316.959,81.263c-1.26-5.301-4.35-8.821-9.813-9.976c-0.952-0.201-1.938-0.287-2.914-0.337
		c-6.734-0.346-12.062,2.204-15.917,7.775c-0.355,0.515-0.508,1.18-1.112,1.578c-0.544-0.467-0.551-1.169-0.799-1.744
		c-1.514-3.507-4.04-5.947-7.717-6.982c-6.977-1.963-14.975,0.168-19.556,6.828c-0.356,0.517-0.703,1.038-1.055,1.559
		c-0.207-2.697,0.354-5.311-0.028-8.008c-3.403,0.314-6.653,0.953-9.778,2.122c-2.374,0.889-1.916,0.546-1.918,2.727
		c-0.017,14.305-0.009,28.608-0.009,42.914c0,0.327,0.024,0.654-0.002,0.979c-0.061,0.741,0.234,1.036,1.006,1.03
		c3.526-0.027,7.053-0.024,10.581-0.002c0.778,0.005,1.015-0.337,0.998-1.064c-0.031-1.371-0.009-2.742-0.007-4.113
		c0.01-6.598-0.065-13.196,0.062-19.791c0.084-4.28,1.402-8.217,4.207-11.55c1.287-1.527,2.836-2.714,4.791-3.249
		c3.273-0.896,6.747-0.068,7.523,4.529c0.252,1.494,0.31,2.984,0.311,4.484c0.007,9.471,0.003,18.941,0.003,28.414
		c0,0.457,0.021,0.915-0.001,1.371c-0.028,0.632,0.185,0.967,0.885,0.964c3.527-0.018,7.055-0.011,10.582-0.005
		c0.555,0.001,0.853-0.219,0.847-0.799c-0.006-0.522,0.01-1.045,0.01-1.567c0.001-6.989-0.007-13.979,0.003-20.967
		c0.006-4.191,0.799-8.181,3.189-11.721c1.302-1.928,2.923-3.521,5.106-4.428c4.408-1.829,7.883,0.233,8.416,4.97
		c0.015,0.131,0.019,0.262,0.031,0.392c0.428,4.171,0.187,8.354,0.212,12.531c0.041,6.728,0.005,13.455,0.017,20.183
		c0.003,1.372,0.034,1.393,1.405,1.403c2.417,0.017,4.834,0.005,7.251,0.005c0.979,0,1.959-0.017,2.938,0.002
		c0.651,0.011,0.968-0.264,0.937-0.928c-0.015-0.324,0.001-0.652,0.001-0.979c0-10.713,0.015-21.425-0.011-32.137
		C317.63,85.521,317.46,83.369,316.959,81.263"/>
	<path fill="#FFD400" d="M344.042,42.904c1.031,4.111,2.034,8.229,3.107,12.328c0.517,1.97,1.825,2.906,3.828,3.01
		c1.14,0.058,2.191-0.219,3.24-0.615c13.446-5.076,27.226-9.04,41.196-12.381c14.467-3.46,29.035-6.395,43.736-8.671
		c2.856-0.442,3.485-1.503,2.462-4.16c-1.289-3.349-2.655-6.669-3.907-10.031c-0.871-2.341-2.532-3.366-4.952-3.35
		c-1.307,0.008-2.613,0.001-3.919,0.001c0,0.016-0.001,0.032-0.001,0.048c-1.24,0-2.483-0.049-3.722,0.008
		c-8.87,0.405-17.687,1.379-26.461,2.706c-13.693,2.072-27.172,5.098-40.322,9.481c-3.65,1.217-7.275,2.52-10.868,3.896
		c-2.759,1.056-4.813,3.287-3.593,6.968C343.948,42.388,343.979,42.651,344.042,42.904"/>
	<path fill="#0D1D73" d="M34.319,88.002c-0.225-0.069-0.514-0.021-0.69-0.428c0.457-0.511,1.177-0.687,1.76-1.053
		c5.769-3.622,8.33-8.826,7.594-15.585c-0.686-6.296-4.438-10.08-10.227-12.095c-2.986-1.04-6.078-1.499-9.228-1.506
		c-7.051-0.017-14.103-0.062-21.147,0.352c-1.691,0.099-1.709,0.088-1.709,1.757c-0.004,20.307-0.005,40.615,0,60.921
		c0,1.619,0.02,1.631,1.577,1.645c5.484,0.048,10.968,0.081,16.452,0.133c3.078,0.03,6.128-0.195,9.139-0.865
		c9.647-2.146,15.818-8.447,16.493-17.821C44.809,96.836,41.522,90.194,34.319,88.002 M14.011,67.46
		c2.998-0.123,5.994-0.395,8.987,0.074c0.322,0.051,0.65,0.067,0.969,0.134c3.696,0.771,5.737,2.74,6.3,6.069
		c0.601,3.553-0.927,6.911-3.953,8.703c-2.26,1.338-4.781,1.689-7.327,1.864c-1.495,0.103-3.002,0.056-4.503,0.015
		c-1.628-0.045-1.643-0.076-1.654-1.65c-0.015-2.285-0.004-4.57-0.004-6.855c0.001-2.35,0.039-4.702-0.018-7.051
		C12.785,67.841,13.081,67.499,14.011,67.46 M26.367,110.675c-1.304,0.63-2.685,1.023-4.115,1.174
		c-2.733,0.285-5.471,0.102-8.207-0.028c-0.895-0.043-1.251-0.396-1.234-1.324c0.047-2.674,0.016-5.348,0.016-8.021
		c0-2.479,0.038-4.958-0.02-7.435c-0.022-0.973,0.23-1.437,1.28-1.449c3.325-0.043,6.652-0.166,9.922,0.625
		c0.505,0.122,1.012,0.252,1.503,0.421c3.733,1.291,5.645,3.736,5.85,7.46C31.57,105.88,29.721,109.055,26.367,110.675"/>
	<path fill="#FE000C" d="M443.127,56.504c-1.357-4.292-2.874-8.532-4.619-12.684c-1.077-2.562-2.366-3.253-5.094-2.738
		c-17.381,3.281-34.574,7.378-51.647,11.984c-3.713,1.002-4.817,3.226-3.509,6.801c1.524,4.165,3.04,8.333,4.528,12.511
		c0.591,1.658,1.063,3.357,1.646,5.019c0.813,2.319,2.441,3.553,4.615,3.577c0.727,0.021,1.414-0.135,2.101-0.388
		c16.529-6.085,32.993-12.34,49.399-18.748C443.414,60.719,444.052,59.429,443.127,56.504"/>
	<path fill="#0D1D73" d="M356.932,72.462c-2.059-0.672-4.186-0.988-6.337-1.16c-10.619-0.847-20.571,4.032-24.926,14.78
		c-3.3,8.146-3.127,16.472-0.137,24.67c2.192,6.011,6.659,9.682,12.818,11.309c2.413,0.638,4.869,0.926,7.233,0.862
		c10.719,0.33,20.113-5.778,23.717-16.508c2.494-7.427,2.298-14.93-0.293-22.287C366.954,78.297,362.848,74.393,356.932,72.462
		 M358.038,97.271c-0.07,2.636-0.389,5.802-1.806,8.751c-2.348,4.887-6.827,7.075-12.558,5.492
		c-2.694-0.744-4.463-2.601-5.597-5.095c-1.55-3.412-1.812-7.047-1.711-10.716c0.064-2.354,0.458-4.664,1.393-6.86
		c2.228-5.237,7.136-7.742,12.552-6.415c3.113,0.763,5.085,2.755,6.29,5.636c0.457,1.091,0.773,2.222,0.968,3.375
		C357.862,93.174,358.051,94.926,358.038,97.271"/>
	<path fill="#0D1D73" d="M88.384,119.8c-0.114-9.402-0.223-18.805-0.347-28.206c-0.036-2.674,0.062-5.349-0.381-8.012
		c-0.892-5.353-3.698-9.105-8.902-10.909c-0.921-0.32-1.867-0.592-2.822-0.786c-5.912-1.208-11.812-0.894-17.7,0.213
		c-2.311,0.435-4.572,1.057-6.808,1.783c-0.637,0.207-0.94,0.486-0.849,1.263c0.373,3.171,0.662,6.352,1.003,9.745
		c1.218-0.548,2.149-1.01,3.111-1.394c4.549-1.808,9.228-2.804,14.156-2.209c4.228,0.511,6.444,2.886,6.598,7.104
		c0.024,0.652-0.039,1.311,0.019,1.959c0.082,0.905-0.218,1.237-1.183,1.29c-2.474,0.136-4.954,0.223-7.41,0.636
		c-4.151,0.698-8.15,1.822-11.756,4.067c-4.416,2.75-7.155,6.61-7.678,11.873c-0.662,6.656,2.355,12.968,10.12,14.415
		c2.014,0.375,4.041,0.434,6.045,0.188c5.189-0.638,9.404-2.961,12.286-7.453c0.183-0.285,0.199-0.775,0.829-0.766
		c-0.093,1.629-0.192,3.247-0.278,4.864c-0.031,0.587-0.033,1.174-0.048,1.761c-0.014,0.558,0.243,0.843,0.816,0.839
		c3.461-0.022,6.922-0.042,10.384-0.056c0.573-0.002,0.823-0.27,0.8-0.838C88.372,120.715,88.39,120.258,88.384,119.8
		 M75.458,100.975c-0.17,4.736-1.876,8.624-6.131,11.082c-1.259,0.728-2.648,1.085-4.121,1.04c-2.881,0.021-4.822-1.158-5.582-3.392
		c-0.836-2.459,0.022-5.145,2.172-6.803c1.264-0.975,2.724-1.539,4.241-1.938c2.728-0.72,5.522-0.916,8.334-0.951
		C75.063,100.005,75.486,100.149,75.458,100.975"/>
	<path fill="#0D1D73" d="M137.491,119.718c0-10.909,0.002-21.817-0.004-32.727c-0.001-0.979,0.006-1.966-0.103-2.936
		c-0.654-5.76-3.058-11.749-11.728-12.747c-7.442-0.856-13.647,1.456-18.032,7.822c-0.279,0.405-0.403,0.954-1.216,1.304
		c0.111-2.361,0.211-4.51,0.314-6.659c0.078-1.61,0.075-1.65-1.58-1.462c-2.925,0.333-5.775,1.002-8.573,1.931
		c-1.085,0.36-1.479,0.9-1.475,2.091c0.045,14.632,0.029,29.264,0.029,43.896c0,0.195,0.022,0.395-0.002,0.587
		c-0.122,0.967,0.341,1.222,1.25,1.21c3.396-0.04,6.793-0.034,10.19-0.004c0.804,0.007,1.248-0.2,1.18-1.085
		c-0.035-0.455-0.002-0.914-0.002-1.371c0-6.99-0.028-13.979,0.01-20.969c0.023-4.391,0.909-8.562,3.545-12.205
		c1.372-1.896,3.072-3.432,5.357-4.08c4.123-1.169,7.776-0.024,8.25,5.405c0.131,1.495,0.187,2.999,0.19,4.499
		c0.017,9.211,0.009,18.421,0.008,27.632c-0.001,2.403-0.106,2.157,2.066,2.161c2.808,0.004,5.618,0.005,8.426,0
		c1.949-0.004,1.907,0.247,1.9-1.902C137.491,119.979,137.491,119.849,137.491,119.718"/>
	<path fill="#0D1D73" d="M240.596,108.61c-2.859,1.721-5.6,2.403-8.544,2.158c-2.635-0.222-4.31-1.659-5.013-4.206
		c-0.232-0.837-0.231-1.678-0.233-2.524c-0.014-4.636-0.024-9.272-0.032-13.908c-0.004-2.352-0.015-4.702,0.005-7.053
		c0.012-1.348,0.036-1.351,1.432-1.384c0.457-0.012,0.914-0.002,1.371-0.002c2.938,0,5.877-0.011,8.815,0.005
		c0.672,0.004,1.134-0.114,1.129-0.938c-0.018-2.873-0.008-5.746-0.004-8.619c0.001-0.662-0.338-0.933-0.975-0.911
		c-0.392,0.014-0.784-0.001-1.176-0.001c-3.069,0-6.139,0.012-9.207-0.007c-1.355-0.008-1.357-0.037-1.39-1.424
		c-0.01-0.391-0.002-0.783-0.002-1.175c0-5.551,0.006-11.101-0.003-16.652c-0.003-1.735-0.027-1.772-1.756-1.559
		c-3.311,0.407-6.553,1.124-9.693,2.267c-1.537,0.559-1.55,0.56-1.552,2.19c-0.007,4.767,0.001,9.534-0.005,14.302
		c-0.002,2.057,0.274,2.065-1.971,2.059c-2.416-0.006-4.833,0.023-7.248-0.014c-0.863-0.013-1.324,0.163-1.308,1.174
		c0.043,2.742,0.019,5.485-0.028,8.226c-0.015,0.841,0.263,1.143,1.119,1.129c2.612-0.043,5.224-0.025,7.836-0.011
		c1.575,0.008,1.596,0.023,1.599,1.633c0.009,6.073-0.005,12.146,0.008,18.219c0.005,1.958-0.024,3.923,0.122,5.873
		c0.516,6.849,4.465,11.784,10.814,13.596c5.195,1.482,10.205,0.464,15.172-1.152c0.632-0.206,0.725-0.632,0.723-1.2
		C240.589,115.443,240.596,112.187,240.596,108.61"/>
	<path fill="#0D1D73" d="M194.977,95.714c-1.211-0.785-2.503-1.396-3.848-1.912c-2.564-0.985-5.243-1.575-7.875-2.328
		c-1.506-0.431-3.012-0.879-4.344-1.74c-1.153-0.745-1.916-1.718-1.959-3.185c-0.082-2.803,1.565-4.936,4.303-5.469
		c2.647-0.518,4.914,0.784,5.879,3.388c0.158,0.428,0.333,0.866,0.384,1.312c0.088,0.786,0.426,1.104,1.252,1.096
		c3.396-0.037,6.794-0.047,10.19,0.003c1.028,0.015,1.193-0.403,1.086-1.298c-0.554-4.623-2.763-8.257-6.568-10.882
		c-5.139-3.544-10.793-4.111-16.66-2.396c-6.486,1.896-10.912,5.943-11.745,12.919c-0.857,7.178,1.875,12.446,8.441,15.097
		c1.88,0.759,3.825,1.296,5.787,1.79c2.212,0.558,4.467,0.981,6.552,1.951c1.714,0.798,2.95,1.99,2.848,4.041
		c-0.104,2.08-1.16,3.558-3.088,4.379c-4.105,1.749-7.872-0.117-8.947-4.424c-0.016-0.063-0.02-0.129-0.035-0.192
		c-0.37-1.559-0.37-1.563-2.04-1.57c-1.437-0.007-2.874-0.001-4.311-0.001c-1.634,0.001-3.267-0.021-4.9,0.007
		c-1.25,0.021-1.324,0.097-1.225,1.364c0.586,7.442,4.554,12.105,10.892,14.005c5.282,1.583,10.602,1.384,15.772-0.522
		c4.447-1.639,7.7-4.598,9.188-9.24c0.69-2.151,0.743-4.368,0.573-6.594C200.265,101.213,198.462,97.971,194.977,95.714"/>
	<path fill="#0D1D73" d="M360.1,22.181c0.693,1.943,1.708,2.579,3.72,2.416c0.645-0.053,1.292-0.194,1.914-0.376
		c6.262-1.831,12.587-3.406,18.986-4.677c12.305-2.444,24.702-4.146,37.258-4.558c2.544-0.083,5.089-0.17,7.631-0.301
		c1.717-0.088,2.19-0.849,1.52-2.444c-1.164-2.765-2.404-5.498-3.557-8.267c-0.782-1.875-2.119-2.824-4.141-3.09
		c-3.966-0.522-7.944-0.49-12.61-0.515c-13.001,0.127-26.522,1.644-39.867,4.716c-3.877,0.892-7.741,1.832-11.55,2.981
		c-2.776,0.838-3.41,2.116-2.492,4.869C357.943,16.028,359.002,19.111,360.1,22.181"/>
	<path fill="#0D1E73" d="M157.245,72.12c-3.846-0.238-7.687-0.372-11.522,0.178c-0.647,0.093-0.936,0.337-0.914,0.979
		c0.015,0.455-0.001,0.914-0.001,1.369c-0.001,8.223-0.001,16.444-0.001,24.666c0,6.982-0.003,13.965,0.003,20.946
		c0.002,1.733,0.016,1.746,1.657,1.751c3.328,0.009,6.656,0.009,9.984,0c1.671-0.005,1.686-0.017,1.687-1.727
		c0.006-7.7,0.003-15.399,0.003-23.1V74.476c0-0.457-0.021-0.914,0.002-1.37C158.175,72.461,157.902,72.161,157.245,72.12"/>
	<path fill="#0D1E73" d="M151.848,50.344c-4.25,0.007-7.749,3.483-7.752,7.702c-0.005,4.33,3.563,7.911,7.826,7.855
		c4.228-0.055,7.713-3.522,7.785-7.745C159.78,53.879,156.214,50.336,151.848,50.344"/>
</g>
</svg>
