<svg xmlns="http://www.w3.org/2000/svg" xmlns:xlink="http://www.w3.org/1999/xlink" width="48" height="48" viewBox="0 0 48 48">
    <defs>
        <path id="a" d="M.51.222h31.495v39.62H.51z"/>
    </defs>
    <g fill="none" fill-rule="evenodd">
        <g transform="translate(9 5.321)">
            <mask id="b" fill="#fff">
                <use xlink:href="#a"/>
            </mask>
            <path fill="#FCD603" d="M32 38.893l-1.159-10.427a.855.855 0 0 0-.532-.7l-3.434-1.373a6.329 6.329 0 0 1-3.635-3.823l-1.099-3.213a10.547 10.547 0 0 0 4.387-8.57C26.528 4.7 21.381-.182 15.202.25c-5.168.363-9.364 4.523-9.769 9.688a10.547 10.547 0 0 0 3.994 9.148l-.84 4.785a2.634 2.634 0 0 1-1.616 1.99l-4.765 1.907a.853.853 0 0 0-.532.699l-.417 3.753-.642 5.119-.1 1.555a.855.855 0 0 0 .85.95h29.784c.51 0 .907-.443.851-.95" mask="url(#b)"/>
        </g>
        <path fill="#5C5C60" d="M7.672 38.903c.15.15.37.23.58.23.21 0 .42-.08.57-.23a.859.859 0 0 0 .24-.58c0-.21-.09-.42-.24-.58a.815.815 0 0 0-.88-.17c-.1.04-.19.1-.27.17-.15.16-.24.37-.24.58 0 .11.02.21.06.31.05.1.11.19.18.27M23.254 4.647c5.376 0 9.75 4.375 9.75 9.75 0 5.378-4.374 9.753-9.75 9.753-5.377 0-9.752-4.375-9.752-9.752 0-5.376 4.375-9.751 9.752-9.751m0 21.13c6.273 0 11.377-5.105 11.377-11.38 0-6.272-5.104-11.377-11.377-11.377-6.274 0-11.379 5.105-11.379 11.378 0 6.274 5.105 11.379 11.38 11.379M8.455 36.638a.813.813 0 0 0 .898-.719l.443-3.787 6.128-2.452a.812.812 0 1 0-.604-1.51l-6.129 2.45c-.573.23-.97.755-1.037 1.367l-.418 3.753a.814.814 0 0 0 .72.898M40.097 42.413L38.94 31.986a1.667 1.667 0 0 0-1.04-1.365l-6.127-2.45a.814.814 0 0 0-.604 1.51l6.154 2.485 1.116 10.473-29.823-.083.1-1.555a.812.812 0 1 0-1.622-.106l-.1 1.518c-.051.47.1.943.415 1.296.317.354.77.557 1.246.557h29.784a1.672 1.672 0 0 0 1.658-1.853"/>
    </g>
</svg>
