<svg xmlns="http://www.w3.org/2000/svg" width="48" height="48" viewBox="0 0 48 48">
    <g fill="none" fill-rule="evenodd">
        <path d="M6.174 10.8h38.764v29.073H6.174z"/>
        <path fill="#FCD603" d="M40.092 10.8H11.02c-2.665 0-4.846 2.18-4.846 4.845v19.383c0 2.663 2.18 4.845 4.846 4.845h29.072c2.663 0 4.846-2.182 4.846-4.845V15.644c-.001-2.663-2.182-4.844-4.846-4.844"/>
        <path fill="#B5B5B5" d="M9.208 33.36h5.194a.822.822 0 0 0 .822-.824v-5.194a.822.822 0 0 0-.822-.822H9.208a.822.822 0 0 0-.822.822v5.194a.822.822 0 0 0 .822.823"/>
        <path d="M3 39.873h41.938V8H3z"/>
        <path fill="#B5B5B5" d="M3.814 20.928h38.764V16.08H3.814z"/>
        <path fill="#5C5C60" d="M17.368 29.095h14.536V26.67H17.368zM17.368 32.817h4.846v-2.422h-4.846zM9.208 27.334l5.203.009-.009 5.203H9.208l-.008-.01.008-5.202zm0 6.839h5.194c.902 0 1.636-.735 1.636-1.637v-5.193c0-.903-.734-1.636-1.636-1.636H9.208c-.902 0-1.635.733-1.635 1.636v5.19a1.62 1.62 0 0 0 .476 1.158c.309.311.721.482 1.159.482z"/>
        <path fill="#5C5C60" d="M41.764 33.041a4.036 4.036 0 0 1-4.032 4.032H8.66a4.036 4.036 0 0 1-4.032-4.032V21.74h37.136v11.301zM4.628 13.659A4.036 4.036 0 0 1 8.66 9.627h29.072a4.037 4.037 0 0 1 4.032 4.031v1.61H4.628v-1.609zm0 6.455h37.136v-3.219H4.628v3.219zm38.763-4.846v-1.61A5.665 5.665 0 0 0 37.73 8H8.66A5.665 5.665 0 0 0 3 13.659V33.041A5.665 5.665 0 0 0 8.66 38.7h29.072a5.666 5.666 0 0 0 5.659-5.659V15.268z"/>
    </g>
</svg>
